# xmcd
#
# Track frame offsets: 
#        163
#        1060
#        18262
#        39229
#        53101
#        66557
#        84655
#        99774
#        117726
#        131350
#        150211
#        161849
#        179576
#        195636
#        214537
#        234992
#
# Disc length: 3330 seconds
#
# Revision: 0
# Processed by: cddbd v1.5.2PL0 Copyright (c) Steve Scherf et al.
# Submitted via: ExactAudioCopyFreeDBPlugin 1.0
#
DISCID=c50d0010
DTITLE=Ella Mai - Ella Mai
DYEAR=2018
DGENRE=R&B
TTITLE0=Emotion
TTITLE1=Good Bad
TTITLE2=Dangerous
TTITLE3=Sauce
TTITLE4=Whatchamacallit (feat. Chris Brown)
TTITLE5=Cheap Shot
TTITLE6=Shot Clock
TTITLE7=Boo'd Up
TTITLE8=Everything (feat. John Legend)
TTITLE9=Own It
TTITLE10=Run My Mouth
TTITLE11=Gut Feeling (feat. H.E.R.)
TTITLE12=Trip
TTITLE13=Close
TTITLE14=Easy
TTITLE15=Naked (Bonus Track)
EXTD=
EXTT0=
EXTT1=
EXTT2=
EXTT3=
EXTT4=
EXTT5=
EXTT6=
EXTT7=
EXTT8=
EXTT9=
EXTT10=
EXTT11=
EXTT12=
EXTT13=
EXTT14=
EXTT15=
PLAYORDER=
